<svg width="28" height="27" viewBox="0 0 28 27" fill="none" xmlns="http://www.w3.org/2000/svg">
<g filter="url(#filter0_d_54_5)">
<path d="M11.8588 6.20341H11.8682M16.5579 6.20341H16.5673M19.8472 1.79663C20.595 1.79663 21.3121 2.0752 21.8409 2.57106C22.3696 3.06692 22.6667 3.73945 22.6667 4.4407V11.4915C22.6667 12.1928 22.3696 12.8653 21.8409 13.3612C21.3121 13.857 20.595 14.1356 19.8472 14.1356H15.1481L10.4491 16.7797V14.1356H8.56944C7.82168 14.1356 7.10454 13.857 6.5758 13.3612C6.04705 12.8653 5.75 12.1928 5.75 11.4915V4.4407C5.75 3.73945 6.04705 3.06692 6.5758 2.57106C7.10454 2.0752 7.82168 1.79663 8.56944 1.79663H19.8472Z" stroke="white" stroke-width="2.5" stroke-linecap="round" stroke-linejoin="round"/>
<path d="M11.8589 9.72882C12.1652 10.022 12.5307 10.2548 12.9342 10.4138C13.3376 10.5728 13.7708 10.6547 14.2084 10.6547C14.646 10.6547 15.0793 10.5728 15.4827 10.4138C15.8861 10.2548 16.2517 10.022 16.558 9.72882" stroke="white" stroke-width="2.5" stroke-linecap="round" stroke-linejoin="round"/>
</g>
<defs>
<filter id="filter0_d_54_5" x="0.5" y="0.546631" width="27.4165" height="25.483" filterUnits="userSpaceOnUse" color-interpolation-filters="sRGB">
<feFlood flood-opacity="0" result="BackgroundImageFix"/>
<feColorMatrix in="SourceAlpha" type="matrix" values="0 0 0 0 0 0 0 0 0 0 0 0 0 0 0 0 0 0 127 0" result="hardAlpha"/>
<feOffset dy="4"/>
<feGaussianBlur stdDeviation="2"/>
<feComposite in2="hardAlpha" operator="out"/>
<feColorMatrix type="matrix" values="0 0 0 0 0 0 0 0 0 0 0 0 0 0 0 0 0 0 0.25 0"/>
<feBlend mode="normal" in2="BackgroundImageFix" result="effect1_dropShadow_54_5"/>
<feBlend mode="normal" in="SourceGraphic" in2="effect1_dropShadow_54_5" result="shape"/>
</filter>
</defs>
</svg>
