<svg width="45" height="45" viewBox="0 0 45 45" fill="none" xmlns="http://www.w3.org/2000/svg">
<path d="M14.625 20.2457C14.625 19.7484 14.8225 19.2715 15.1742 18.9199C15.5258 18.5683 16.0027 18.3707 16.5 18.3707H27.75C28.2473 18.3707 28.7242 18.5683 29.0758 18.9199C29.4275 19.2715 29.625 19.7484 29.625 20.2457C29.625 20.743 29.4275 21.2199 29.0758 21.5715C28.7242 21.9232 28.2473 22.1207 27.75 22.1207H16.5C16.0027 22.1207 15.5258 21.9232 15.1742 21.5715C14.8225 21.2199 14.625 20.743 14.625 20.2457ZM16.5 25.8707C16.0027 25.8707 15.5258 26.0683 15.1742 26.4199C14.8225 26.7715 14.625 27.2484 14.625 27.7457C14.625 28.243 14.8225 28.7199 15.1742 29.0715C15.5258 29.4232 16.0027 29.6207 16.5 29.6207H24C24.4973 29.6207 24.9742 29.4232 25.3258 29.0715C25.6775 28.7199 25.875 28.243 25.875 27.7457C25.875 27.2484 25.6775 26.7715 25.3258 26.4199C24.9742 26.0683 24.4973 25.8707 24 25.8707H16.5ZM3.375 22.1207C3.37594 18.01 4.72778 14.0134 7.22247 10.7462C9.71716 7.47897 13.2164 5.12212 17.1818 4.03836C21.1471 2.9546 25.3587 3.20401 29.1684 4.74819C32.9781 6.29238 36.1747 9.04576 38.2663 12.5846C40.358 16.1234 41.2287 20.2516 40.7445 24.3337C40.2602 28.4158 38.4479 32.2257 35.5864 35.177C32.7249 38.1283 28.9728 40.0574 24.9075 40.6674C20.8423 41.2774 16.6892 40.5346 13.0875 38.5532L5.7975 40.7732C5.47234 40.8723 5.12637 40.8811 4.7966 40.7987C4.46683 40.7163 4.16566 40.5458 3.92531 40.3054C3.68495 40.0651 3.51446 39.7639 3.43206 39.4341C3.34966 39.1043 3.35845 38.7584 3.4575 38.4332L5.6775 31.132C4.16537 28.3693 3.37351 25.2702 3.375 22.1207ZM22.125 7.12072C19.4623 7.12049 16.8475 7.82907 14.5492 9.17368C12.2509 10.5183 10.3519 12.4504 9.04736 14.7717C7.74279 17.093 7.07964 19.7196 7.12602 22.382C7.1724 25.0443 7.92663 27.6463 9.31125 29.9207C9.4487 30.1467 9.53679 30.3991 9.56976 30.6615C9.60272 30.9239 9.5798 31.1903 9.5025 31.4432L8.06625 36.1645L12.78 34.7282C13.0337 34.6509 13.301 34.6283 13.564 34.662C13.8271 34.6956 14.0801 34.7846 14.3063 34.9232C16.2832 36.1302 18.5128 36.863 20.8203 37.0641C23.1278 37.2652 25.4505 36.9292 27.6064 36.0824C29.7623 35.2356 31.6929 33.901 33.2467 32.1833C34.8005 30.4656 35.9354 28.4113 36.5625 26.1816C37.1896 23.9518 37.2917 21.6071 36.861 19.3313C36.4303 17.0554 35.4783 14.9102 34.0798 13.0639C32.6813 11.2175 30.8741 9.72005 28.8 8.68895C26.726 7.65785 24.4413 7.12108 22.125 7.12072Z" fill="#49BBBD"/>
</svg>
