<svg width="75" height="50" viewBox="0 0 75 50" fill="none" xmlns="http://www.w3.org/2000/svg">
<path d="M49.625 19.3542L37.5 27.4375L25.375 19.3542C25.0856 19.1613 24.7422 19.0083 24.3642 18.9039C23.9862 18.7995 23.581 18.7458 23.1718 18.7458C22.7627 18.7458 22.3575 18.7995 21.9795 18.9039C21.6015 19.0083 21.258 19.1613 20.9687 19.3542C20.6794 19.547 20.4499 19.776 20.2933 20.028C20.1367 20.28 20.0562 20.5501 20.0562 20.8229C20.0562 21.0957 20.1367 21.3658 20.2933 21.6178C20.4499 21.8698 20.6794 22.0988 20.9687 22.2917L35.3125 31.8542C36.5312 32.6667 38.5 32.6667 39.7187 31.8542L54.0625 22.2917C54.3522 22.0989 54.582 21.87 54.7388 21.618C54.8956 21.3659 54.9764 21.0958 54.9764 20.8229C54.9764 20.5501 54.8956 20.2799 54.7388 20.0279C54.582 19.7758 54.3522 19.5469 54.0625 19.3542C52.8437 18.5625 50.8437 18.5417 49.625 19.3542Z" fill="white"/>
</svg>
