<svg width="157" height="83" viewBox="0 0 157 83" fill="none" xmlns="http://www.w3.org/2000/svg">
<path d="M37.9645 4.94975C39.9171 2.99713 43.0829 2.99713 45.0355 4.94975L78.0502 37.9645C80.0029 39.9171 80.0029 43.0829 78.0503 45.0355L45.0355 78.0502C43.0829 80.0029 39.9171 80.0029 37.9645 78.0503L4.94975 45.0355C2.99713 43.0829 2.99713 39.9171 4.94975 37.9645L37.9645 4.94975Z" stroke="#00FFF0" stroke-width="2"/>
<path d="M37.875 52H24.4375V29.5938H37.3594V33.7656H29.4844V38.6562H36.8125V42.8125H29.4844V47.8281H37.875V52ZM57.4675 52H52.5456V42.8594C52.5456 41.8073 52.3269 40.974 51.8894 40.3594C51.4519 39.7448 50.7956 39.4375 49.9206 39.4375C49.056 39.4375 48.3425 39.7604 47.78 40.4062C47.2279 41.0521 46.9519 41.875 46.9519 42.875V52H42.0144V36H46.9519V38.1094H47.0144C47.5456 37.3385 48.2644 36.7292 49.1706 36.2812C50.0873 35.8333 51.03 35.6094 51.9988 35.6094C53.8008 35.6094 55.1602 36.1719 56.0769 37.2969C57.004 38.4115 57.4675 40.0052 57.4675 42.0781V52ZM78.2788 50.5938C78.2788 53.3229 77.4663 55.4896 75.8413 57.0938C74.2163 58.7083 71.9246 59.5156 68.9663 59.5156C67.2683 59.5156 65.8308 59.2396 64.6538 58.6875C63.4871 58.1458 62.4871 57.3906 61.6538 56.4219L64.7631 53.7969C65.3152 54.4635 65.9194 54.974 66.5756 55.3281C67.2319 55.6927 68.06 55.875 69.06 55.875C70.3829 55.875 71.4246 55.4792 72.185 54.6875C72.9558 53.9062 73.3413 52.8021 73.3413 51.375V50.125H73.2788C72.7058 50.875 71.9975 51.4427 71.1538 51.8281C70.31 52.2031 69.3204 52.3906 68.185 52.3906C66.2475 52.3906 64.6381 51.6979 63.3569 50.3125C62.0756 48.9167 61.435 46.9635 61.435 44.4531C61.435 41.651 62.1798 39.4792 63.6694 37.9375C65.159 36.3854 66.9454 35.6094 69.0288 35.6094C69.8621 35.6094 70.6538 35.7708 71.4038 36.0938C72.1642 36.4167 72.7892 36.901 73.2788 37.5469H73.3413V36H78.2788V50.5938ZM73.4038 44.3125V43.0469C73.4038 42.0573 73.086 41.2083 72.4506 40.5C71.8256 39.7917 71.0183 39.4375 70.0288 39.4375C68.9038 39.4375 68.0235 39.8646 67.3881 40.7188C66.7631 41.5625 66.4506 42.7292 66.4506 44.2188C66.4506 45.5729 66.7475 46.6354 67.3413 47.4062C67.935 48.1771 68.7892 48.5625 69.9038 48.5625C70.8829 48.5625 71.711 48.1875 72.3881 47.4375C73.0652 46.6771 73.4038 45.6354 73.4038 44.3125ZM91.1213 52.3906C88.5171 52.3906 86.4233 51.6406 84.84 50.1406C83.2671 48.6406 82.4858 46.6146 82.4963 44.0625C82.5067 41.5 83.3035 39.4531 84.8869 37.9219C86.4702 36.3802 88.6213 35.6094 91.34 35.6094C94.0171 35.6094 96.1108 36.375 97.6213 37.9062C99.1421 39.4375 99.9025 41.3958 99.9025 43.7812C99.9025 46.3542 99.0848 48.4323 97.4494 50.0156C95.8244 51.599 93.715 52.3906 91.1213 52.3906ZM91.2775 48.5625C92.4858 48.5625 93.3869 48.1302 93.9806 47.2656C94.5744 46.401 94.8713 45.2708 94.8713 43.875C94.8713 42.4896 94.5692 41.4062 93.965 40.625C93.3713 39.8333 92.465 39.4375 91.2463 39.4375C90.0588 39.4375 89.1369 39.8594 88.4806 40.7031C87.8348 41.5469 87.5119 42.6458 87.5119 44C87.5119 45.3646 87.8244 46.4688 88.4494 47.3125C89.0744 48.1458 90.0171 48.5625 91.2775 48.5625ZM109.667 44.7031V52H104.62V29.5938H112.433C115.224 29.5938 117.349 30.2031 118.808 31.4219C120.266 32.6406 120.995 34.4479 120.995 36.8438C120.995 39.2917 120.172 41.2135 118.526 42.6094C116.891 44.0052 114.698 44.7031 111.948 44.7031H109.667ZM109.667 33.4688V40.8281H111.745C113.016 40.8281 113.99 40.5052 114.667 39.8594C115.344 39.2031 115.683 38.2604 115.683 37.0312C115.683 35.8854 115.349 35.0052 114.683 34.3906C114.016 33.776 113.063 33.4688 111.823 33.4688H109.667ZM135.041 40.2812C134.718 40.1771 134.4 40.099 134.088 40.0469C133.775 39.9948 133.463 39.9688 133.15 39.9688C132.119 39.9688 131.296 40.3594 130.681 41.1406C130.067 41.9219 129.759 42.9948 129.759 44.3594V52H124.822V36H129.759V38.8594H129.822C130.207 37.8177 130.749 37.0365 131.447 36.5156C132.155 35.9844 133.009 35.7188 134.009 35.7188C134.374 35.7188 134.718 35.7448 135.041 35.7969C135.374 35.849 135.702 35.9375 136.025 36.0625L135.041 40.2812ZM146.993 52.3906C144.388 52.3906 142.295 51.6406 140.711 50.1406C139.138 48.6406 138.357 46.6146 138.368 44.0625C138.378 41.5 139.175 39.4531 140.758 37.9219C142.341 36.3802 144.493 35.6094 147.211 35.6094C149.888 35.6094 151.982 36.375 153.493 37.9062C155.013 39.4375 155.774 41.3958 155.774 43.7812C155.774 46.3542 154.956 48.4323 153.321 50.0156C151.696 51.599 149.586 52.3906 146.993 52.3906ZM147.149 48.5625C148.357 48.5625 149.258 48.1302 149.852 47.2656C150.446 46.401 150.743 45.2708 150.743 43.875C150.743 42.4896 150.44 41.4062 149.836 40.625C149.243 39.8333 148.336 39.4375 147.118 39.4375C145.93 39.4375 145.008 39.8594 144.352 40.7031C143.706 41.5469 143.383 42.6458 143.383 44C143.383 45.3646 143.696 46.4688 144.321 47.3125C144.946 48.1458 145.888 48.5625 147.149 48.5625Z" fill="white"/>
</svg>
