<svg width="106" height="109" viewBox="0 0 106 109" fill="none" xmlns="http://www.w3.org/2000/svg">
<path d="M79.25 14H30.6667C29.4954 14.0003 28.3722 14.4789 27.5441 15.3307L14.2941 28.9557L14.0423 29.2373C13.4134 30.003 13.0485 30.9611 13.0044 31.9623L13 32.203V82.125C13 89.6369 18.9448 95.75 26.25 95.75H66C68.7389 95.7439 71.4092 94.8681 73.6457 93.2422C75.8822 91.6164 77.5757 89.3198 78.4948 86.6667H81.4583C87.6505 86.6667 92.5 80.6853 92.5 73.0417V27.625C92.5 20.1131 86.5552 14 79.25 14ZM26.25 86.6667C23.8164 86.6667 21.8333 84.632 21.8333 82.125V36.7083H30.6667V86.6667H26.25ZM70.4167 82.125C70.4167 84.632 68.4336 86.6667 66 86.6667H35.0833V36.7083H66C68.4336 36.7083 70.4167 38.743 70.4167 41.25V82.125ZM83.6667 73.0417C83.6667 75.8575 82.2357 77.5833 81.4583 77.5833H79.25V41.25C79.25 33.7381 73.3052 27.625 66 27.625H28.0785L32.4952 23.0833H79.25C81.6836 23.0833 83.6667 25.118 83.6667 27.625V73.0417Z" fill="#EDA21F"/>
</svg>
