<svg width="24" height="24" viewBox="0 0 24 24" fill="none" xmlns="http://www.w3.org/2000/svg">
<path d="M12 0.375C18.4219 0.375 23.625 5.57812 23.625 12C23.625 18.4219 18.4219 23.625 12 23.625C5.57812 23.625 0.375 18.4219 0.375 12C0.375 5.57812 5.57812 0.375 12 0.375ZM12 21.375C17.1562 21.375 21.375 17.2031 21.375 12C21.375 6.84375 17.1562 2.625 12 2.625C6.79688 2.625 2.625 6.84375 2.625 12C2.625 17.2031 6.79688 21.375 12 21.375ZM14.8594 16.5L10.875 13.5938C10.7344 13.5 10.6875 13.3125 10.6875 13.1719V5.4375C10.6875 5.15625 10.9219 4.875 11.25 4.875H12.75C13.0312 4.875 13.3125 5.15625 13.3125 5.4375V12.0938L16.4062 14.3906C16.6875 14.5781 16.7344 14.9062 16.5469 15.1875L15.6562 16.3594C15.4688 16.6406 15.1406 16.6875 14.8594 16.5Z" fill="#D9D9D9"/>
</svg>
