<svg width="92" height="103" viewBox="0 0 92 103" fill="none" xmlns="http://www.w3.org/2000/svg">
<path d="M61.3372 0H30.6686V9.80952H61.3372V0ZM40.8915 63.7619H51.1143V34.3333H40.8915V63.7619ZM81.9363 31.3414L89.1945 24.3767C86.9966 21.8752 84.5942 19.521 81.9874 17.461L74.7292 24.4257C66.5887 18.1387 56.4525 14.712 46.0029 14.7143C20.5991 14.7143 0 34.4805 0 58.8571C0 83.2338 20.548 103 46.0029 103C54.6632 103.004 63.1488 100.662 70.4822 96.241C77.8156 91.8205 83.6987 85.5022 87.4537 78.0138C91.2088 70.5255 92.6832 62.1716 91.707 53.9144C90.7309 45.6572 87.3439 37.8324 81.9363 31.3414ZM46.0029 93.1905C26.2217 93.1905 10.2229 77.8386 10.2229 58.8571C10.2229 39.8757 26.2217 24.5238 46.0029 24.5238C65.7841 24.5238 81.7829 39.8757 81.7829 58.8571C81.7829 77.8386 65.7841 93.1905 46.0029 93.1905Z" fill="#FF5B5B"/>
</svg>
