<svg width="15" height="15" viewBox="0 0 15 15" fill="none" xmlns="http://www.w3.org/2000/svg">
<path d="M12.2161 11.2213C12.3482 11.3534 12.4224 11.5325 12.4224 11.7193C12.4224 11.9062 12.3482 12.0853 12.2161 12.2174C12.084 12.3495 11.9048 12.4237 11.718 12.4237C11.5312 12.4237 11.3521 12.3495 11.22 12.2174L7.49985 8.49611L3.77856 12.2162C3.64647 12.3483 3.46732 12.4225 3.28052 12.4225C3.09371 12.4225 2.91456 12.3483 2.78247 12.2162C2.65038 12.0841 2.57617 11.905 2.57617 11.7182C2.57617 11.5314 2.65038 11.3522 2.78247 11.2201L6.50376 7.50001L2.78364 3.77872C2.65155 3.64663 2.57734 3.46748 2.57734 3.28068C2.57734 3.09387 2.65155 2.91472 2.78364 2.78263C2.91573 2.65054 3.09488 2.57633 3.28169 2.57633C3.46849 2.57633 3.64765 2.65054 3.77974 2.78263L7.49985 6.50392L11.2211 2.78204C11.3532 2.64995 11.5324 2.57574 11.7192 2.57574C11.906 2.57574 12.0851 2.64995 12.2172 2.78204C12.3493 2.91413 12.4235 3.09329 12.4235 3.28009C12.4235 3.46689 12.3493 3.64605 12.2172 3.77814L8.49595 7.50001L12.2161 11.2213Z" fill="white"/>
</svg>
